<?xml version="1.0" ?><!DOCTYPE svg  PUBLIC '-//W3C//DTD SVG 1.1//EN'  'http://www.w3.org/Graphics/SVG/1.1/DTD/svg11.dtd'><svg enable-background="new 0 0 512 512" height="512px" id="snorkel" version="1.1" viewBox="0 0 512 512" width="512px" xml:space="preserve" xmlns="http://www.w3.org/2000/svg" xmlns:xlink="http://www.w3.org/1999/xlink"><g><path d="M352.91,258.42h-43.471c-6.648,0-13.119,2.298-18.219,6.472l-9.592,7.85c-2.693,2.204-6.127,3.418-9.668,3.418h-16.145   c-3.541,0-6.974-1.214-9.667-3.418l-9.593-7.85c-5.1-4.174-11.57-6.472-18.219-6.472h-43.47c-15.658,0-28.396,12.465-28.396,27.787   v37.48c0,15.322,12.737,27.789,28.396,27.789h36.416c7.549,0,14.655-2.866,20.011-8.071l15.029-14.608   c2.761-2.684,6.598-4.233,10.529-4.252l7.001-0.036l7.071,0.036c3.931,0.019,7.767,1.568,10.527,4.252l15.029,14.607   c5.355,5.206,12.463,8.072,20.012,8.072h36.416c15.658,0,28.396-12.467,28.396-27.789v-37.48   C381.306,270.885,368.568,258.42,352.91,258.42z M170.164,308.171c-2.438-2.82-2.129-7.082,0.691-9.521l22.061-19.078   c2.819-2.438,7.081-2.13,9.521,0.691c2.438,2.819,2.129,7.082-0.69,9.521l-22.062,19.078c-1.276,1.104-2.848,1.645-4.413,1.645   C173.381,310.506,171.5,309.715,170.164,308.171z M221.736,301.063l-33.011,28.545c-1.276,1.104-2.848,1.645-4.413,1.645   c-1.892,0-3.773-0.791-5.108-2.335c-2.438-2.82-2.129-7.082,0.69-9.521l33.011-28.545c2.817-2.438,7.081-2.131,9.521,0.69   C224.864,294.362,224.556,298.624,221.736,301.063z M306.749,308.171c-2.438-2.82-2.13-7.082,0.69-9.521l22.063-19.078   c2.818-2.438,7.08-2.13,9.521,0.691c2.438,2.819,2.129,7.082-0.69,9.521l-22.063,19.078c-1.275,1.104-2.848,1.645-4.412,1.645   C309.966,310.506,308.084,309.715,306.749,308.171z M358.32,301.063l-33.011,28.545c-1.275,1.104-2.847,1.645-4.412,1.645   c-1.892,0-3.773-0.791-5.108-2.335c-2.438-2.82-2.129-7.082,0.69-9.521l33.011-28.545c2.817-2.438,7.079-2.131,9.521,0.69   C361.449,294.362,361.141,298.624,358.32,301.063z"/><g><g><path d="M109.315,222.639c-14.113,0-25.595-11.482-25.595-25.595s11.481-25.594,25.595-25.594     c14.112,0,25.593,11.481,25.593,25.594S123.428,222.639,109.315,222.639z M109.315,184.95c-6.67,0-12.095,5.425-12.095,12.094     s5.425,12.095,12.095,12.095c6.668,0,12.093-5.426,12.093-12.095S115.983,184.95,109.315,184.95z"/></g><g><path d="M58.631,179.802c-19.129,0-34.691-15.562-34.691-34.691c0-19.129,15.563-34.691,34.691-34.691     s34.691,15.563,34.691,34.691C93.322,164.24,77.76,179.802,58.631,179.802z M58.631,123.919     c-11.685,0-21.191,9.507-21.191,21.191c0,11.686,9.507,21.191,21.191,21.191s21.191-9.506,21.191-21.191     C79.822,133.426,70.315,123.919,58.631,123.919z"/></g><g><path d="M129.459,151.468c-13.675,0-24.799-11.124-24.799-24.798c0-13.675,11.124-24.799,24.799-24.799     c13.674,0,24.798,11.124,24.798,24.799C154.257,140.344,143.133,151.468,129.459,151.468z M129.459,115.371     c-6.23,0-11.299,5.068-11.299,11.299s5.068,11.298,11.299,11.298s11.298-5.067,11.298-11.298S135.689,115.371,129.459,115.371z"/></g><g><path d="M85.922,103.076c-25.578,0-46.388-20.809-46.388-46.388s20.81-46.388,46.388-46.388     c25.579,0,46.389,20.809,46.389,46.388S111.501,103.076,85.922,103.076z M85.922,23.801c-18.134,0-32.888,14.754-32.888,32.888     s14.754,32.888,32.888,32.888c18.135,0,32.889-14.754,32.889-32.888S104.057,23.801,85.922,23.801z"/></g><g><path d="M85.922,103.076c-25.578,0-46.388-20.809-46.388-46.388s20.81-46.388,46.388-46.388     c25.579,0,46.389,20.809,46.389,46.388S111.501,103.076,85.922,103.076z M85.922,23.801c-18.134,0-32.888,14.754-32.888,32.888     s14.754,32.888,32.888,32.888c18.135,0,32.889-14.754,32.889-32.888S104.057,23.801,85.922,23.801z"/></g></g><g><g><g><path d="M481.303,343.729c-3.728,0-6.749-3.021-6.75-6.749l-0.014-45.977c-0.001-3.729,3.021-6.751,6.747-6.752      c0.002,0,0.002,0,0.003,0c3.727,0,6.749,3.02,6.75,6.747l0.014,45.979C488.054,340.704,485.032,343.727,481.303,343.729      L481.303,343.729z"/></g><g><path d="M481.311,373.498c-3.728,0-6.749-3.021-6.75-6.749l-0.002-7.293c-0.001-3.729,3.021-6.75,6.749-6.751h0.001      c3.728,0,6.749,3.021,6.75,6.749l0.002,7.293C488.062,370.476,485.04,373.497,481.311,373.498L481.311,373.498z"/></g></g><g><path d="M481.289,272.935c-3.729,0-6.75-3.021-6.75-6.75v-74.698c0-3.728,3.021-6.75,6.75-6.75s6.75,3.022,6.75,6.75v74.698     C488.039,269.913,485.018,272.935,481.289,272.935z"/></g></g><path d="M263.889,364.317c-12.142,0-22.019,9.877-22.019,22.019c0,12.143,9.877,22.02,22.019,22.02   c12.143,0,22.02-9.877,22.02-22.02C285.908,374.194,276.031,364.317,263.889,364.317z M263.889,394.855   c-4.697,0-8.519-3.822-8.519-8.52s3.821-8.519,8.519-8.519s8.52,3.821,8.52,8.519S268.586,394.855,263.889,394.855z"/><path d="M373.182,69.85c-13.859,0-25.135,11.276-25.135,25.136c0,13.858,11.275,25.135,25.135,25.135   c20.666,0,37.48,16.813,37.48,37.479v52.188v61.202v6.129h-6.02v-1.032c0-19.274-11.797-35.328-27.266-38.543   c-1.402-5.021-3.308-9.835-5.653-14.386c-0.014-0.026-0.027-0.053-0.041-0.079c-0.462-0.893-0.939-1.775-1.435-2.647   c-0.013-0.022-0.025-0.045-0.039-0.067c-0.803-1.408-1.659-2.78-2.546-4.132c-1.328-2.023-2.738-3.988-4.247-5.873   c-0.027-0.036-0.056-0.072-0.085-0.108c-0.562-0.698-1.139-1.384-1.724-2.063c-0.133-0.153-0.265-0.307-0.398-0.459   c-0.56-0.64-1.129-1.27-1.71-1.891c-0.153-0.162-0.309-0.322-0.462-0.484c-0.594-0.623-1.193-1.241-1.808-1.844   c-0.057-0.056-0.114-0.108-0.171-0.163c-1.946-1.898-3.998-3.688-6.136-5.374c-0.286-0.225-0.568-0.453-0.857-0.674   c-0.546-0.418-1.101-0.824-1.658-1.227c-0.359-0.261-0.72-0.519-1.084-0.771c-0.535-0.373-1.073-0.741-1.618-1.101   c-0.408-0.27-0.821-0.531-1.234-0.793c-0.527-0.333-1.053-0.668-1.587-0.989c-0.481-0.288-0.973-0.563-1.461-0.841   c-0.764-0.435-1.534-0.858-2.313-1.269c-0.653-0.342-1.307-0.686-1.971-1.01c-0.459-0.225-0.928-0.434-1.392-0.649   c-0.579-0.269-1.158-0.536-1.745-0.79c-0.477-0.207-0.957-0.404-1.438-0.601c-0.6-0.245-1.201-0.484-1.809-0.715   c-0.469-0.178-0.938-0.354-1.412-0.523c-0.661-0.236-1.329-0.459-2-0.678c-0.426-0.14-0.85-0.284-1.279-0.415   c-0.93-0.285-1.867-0.551-2.812-0.801c-0.178-0.047-0.352-0.102-0.529-0.147c-1.114-0.287-2.239-0.544-3.372-0.78   c-0.382-0.08-0.77-0.147-1.154-0.222c-0.777-0.15-1.559-0.294-2.346-0.42c-0.439-0.07-0.884-0.134-1.326-0.197   c-0.754-0.107-1.512-0.204-2.273-0.289c-0.442-0.05-0.886-0.1-1.33-0.142c-0.814-0.076-1.633-0.136-2.454-0.187   c-0.387-0.024-0.772-0.056-1.161-0.074c-1.206-0.057-2.418-0.092-3.639-0.092h-80.555c-1.207,0-2.407,0.035-3.601,0.091   c-0.387,0.019-0.771,0.05-1.155,0.074c-0.811,0.051-1.618,0.108-2.42,0.185c-0.443,0.042-0.885,0.092-1.325,0.142   c-0.748,0.084-1.493,0.179-2.235,0.284c-0.443,0.063-0.887,0.128-1.327,0.199c-0.761,0.123-1.517,0.261-2.269,0.406   c-0.399,0.077-0.801,0.148-1.198,0.231c-0.946,0.199-1.886,0.419-2.819,0.652c-0.189,0.048-0.382,0.087-0.57,0.136   c-1.103,0.285-2.194,0.599-3.277,0.933c-0.379,0.117-0.752,0.247-1.129,0.369c-0.712,0.231-1.421,0.468-2.123,0.72   c-0.442,0.159-0.881,0.326-1.319,0.493c-0.63,0.24-1.256,0.486-1.877,0.742c-0.452,0.186-0.903,0.374-1.351,0.569   c-0.609,0.264-1.211,0.54-1.812,0.819c-0.435,0.203-0.872,0.402-1.303,0.613c-0.645,0.316-1.279,0.648-1.913,0.981   c-0.368,0.194-0.743,0.378-1.108,0.578c-0.935,0.511-1.855,1.043-2.766,1.592c-0.44,0.267-0.872,0.548-1.307,0.822   c-0.507,0.319-1.013,0.638-1.511,0.97c-0.471,0.313-0.935,0.637-1.398,0.961c-0.445,0.311-0.89,0.625-1.328,0.945   c-0.475,0.347-0.945,0.697-1.412,1.056c-0.408,0.313-0.811,0.632-1.213,0.953c-0.475,0.38-0.949,0.759-1.415,1.149   c-0.36,0.302-0.712,0.615-1.066,0.924c-1.782,1.554-3.492,3.188-5.122,4.899c-0.254,0.267-0.512,0.529-0.762,0.8   c-0.479,0.517-0.943,1.045-1.408,1.574c-0.255,0.292-0.51,0.584-0.762,0.88c-0.459,0.542-0.912,1.092-1.357,1.647   c-0.227,0.283-0.45,0.57-0.674,0.856c-0.455,0.586-0.906,1.174-1.346,1.772c-0.163,0.224-0.32,0.453-0.482,0.679   c-1.588,2.221-3.063,4.527-4.406,6.917c-0.061,0.107-0.125,0.213-0.186,0.32c-0.4,0.721-0.783,1.453-1.161,2.188   c-0.124,0.24-0.249,0.48-0.371,0.723c-0.358,0.717-0.704,1.44-1.04,2.169c-0.117,0.254-0.232,0.509-0.346,0.765   c-0.336,0.748-0.663,1.5-0.975,2.261c-0.078,0.193-0.152,0.39-0.229,0.584c-1.088,2.726-2.029,5.524-2.798,8.395   c-0.659,2.459-1.197,4.966-1.607,7.516c0.409-2.551,0.948-5.057,1.607-7.516c-15.34,3.341-27.005,19.322-27.005,38.488v1.032   h-8.502c-9.034,0-16.384,7.349-16.384,16.382v22.879c0,9.033,7.35,16.384,16.384,16.384h8.502v1.032   c0,18.717,11.058,34.082,26.541,38.141c-0.667-2.402-1.185-4.864-1.537-7.38c0.356,2.514,0.87,4.979,1.537,7.38   c1.05,3.781,2.478,7.407,4.237,10.836c0.021,0.041,0.041,0.081,0.062,0.121c0.343,0.664,0.696,1.32,1.063,1.97   c0.012,0.019,0.022,0.037,0.033,0.057c1.493,2.63,3.188,5.13,5.061,7.482c0.049,0.06,0.096,0.122,0.144,0.182   c0.413,0.515,0.838,1.021,1.268,1.521c0.109,0.128,0.22,0.255,0.33,0.381c0.417,0.476,0.84,0.946,1.272,1.408   c0.119,0.127,0.24,0.253,0.361,0.379c0.445,0.469,0.895,0.933,1.355,1.386c0.021,0.021,0.045,0.042,0.067,0.064   c1.067,1.047,2.176,2.053,3.322,3.015c0.012,0.01,0.022,0.021,0.034,0.03c0.43,0.36,0.87,0.707,1.311,1.055   c0.228,0.179,0.453,0.36,0.683,0.536c0.406,0.311,0.819,0.614,1.233,0.914c0.276,0.201,0.556,0.399,0.836,0.595   c0.4,0.279,0.803,0.556,1.21,0.824c0.311,0.206,0.626,0.405,0.94,0.604c0.395,0.25,0.789,0.501,1.189,0.742   c0.377,0.226,0.762,0.44,1.144,0.658c0.574,0.327,1.153,0.645,1.739,0.952c0.482,0.253,0.965,0.507,1.455,0.746   c0.348,0.17,0.701,0.328,1.052,0.491c0.437,0.202,0.874,0.404,1.316,0.596c0.357,0.155,0.719,0.304,1.08,0.452   c0.453,0.186,0.909,0.366,1.367,0.54c0.354,0.135,0.708,0.268,1.064,0.396c0.501,0.179,1.007,0.348,1.514,0.513   c0.319,0.104,0.637,0.213,0.958,0.312c0.724,0.222,1.453,0.43,2.188,0.623c0.141,0.037,0.28,0.077,0.421,0.113   c0.812,0.208,1.631,0.396,2.455,0.568c0.291,0.062,0.586,0.112,0.879,0.169c0.584,0.112,1.17,0.22,1.761,0.315   c0.333,0.053,0.667,0.101,1.003,0.148c0.568,0.081,1.141,0.154,1.715,0.219c0.333,0.037,0.666,0.074,1,0.106   c0.615,0.058,1.234,0.103,1.854,0.141c0.291,0.019,0.581,0.042,0.873,0.056c0.91,0.043,1.824,0.069,2.745,0.069l9.416-0.008   c9.787-0.058,14.609,0.123,17.875,4.566c7.886,10.726,18.094,16.164,30.341,16.164c14.826,0,24.927-8.952,32.077-16.761   l0.785-0.859c3.033-3.313,7.22-3.374,14.992-3.176c1.509,0.037,3.049,0.073,4.612,0.073h7.623c0.913,0,1.82-0.026,2.723-0.068   c0.291-0.014,0.58-0.037,0.87-0.056c0.613-0.038,1.227-0.082,1.835-0.14c0.333-0.031,0.663-0.068,0.995-0.105   c0.569-0.064,1.137-0.137,1.701-0.218c0.331-0.047,0.662-0.095,0.991-0.147c0.586-0.094,1.167-0.2,1.746-0.313   c0.292-0.056,0.585-0.107,0.875-0.168c0.788-0.165,1.569-0.346,2.345-0.543c0.13-0.033,0.26-0.065,0.391-0.1   c0.771-0.202,1.535-0.42,2.293-0.653c0.313-0.096,0.621-0.202,0.932-0.303c0.51-0.167,1.02-0.337,1.522-0.517   c0.351-0.125,0.698-0.257,1.045-0.389c0.458-0.174,0.913-0.354,1.366-0.54c0.356-0.146,0.713-0.293,1.065-0.446   c0.441-0.191,0.878-0.393,1.313-0.595c0.346-0.16,0.693-0.317,1.036-0.484c0.478-0.233,0.947-0.48,1.417-0.728   c0.563-0.295,1.121-0.6,1.673-0.913c0.41-0.233,0.823-0.464,1.228-0.706c0.389-0.233,0.769-0.479,1.15-0.72   c0.323-0.205,0.646-0.409,0.966-0.62c0.397-0.263,0.789-0.532,1.179-0.805c0.287-0.2,0.572-0.403,0.855-0.608   c0.403-0.293,0.805-0.589,1.199-0.892c0.244-0.187,0.484-0.379,0.725-0.569c0.421-0.333,0.842-0.665,1.252-1.01   c0.109-0.092,0.215-0.188,0.323-0.28c1.549-1.317,3.024-2.717,4.425-4.189c0.127-0.133,0.256-0.265,0.382-0.399   c0.418-0.448,0.828-0.906,1.232-1.368c0.124-0.142,0.247-0.284,0.37-0.427c0.412-0.481,0.818-0.968,1.215-1.462   c0.077-0.096,0.152-0.193,0.228-0.29c1.833-2.315,3.493-4.774,4.955-7.358c0.013-0.024,0.027-0.047,0.04-0.07   c0.355-0.63,0.697-1.269,1.029-1.912c0.034-0.066,0.067-0.132,0.101-0.197c0.332-0.651,0.654-1.309,0.962-1.975   c0.004-0.01,0.008-0.019,0.013-0.028c1.292-2.799,2.365-5.719,3.196-8.738c0.648-2.352,1.146-4.764,1.492-7.225   c-0.343,2.462-0.844,4.873-1.492,7.225c15.086-3.583,26.488-19.425,26.488-38.376v-1.032h6.02v13.01v68.176   c0,20.667-16.814,37.479-37.48,37.479h-5.27v-5.685h8.372c8.651,0,15.688-7.702,15.688-17.168c0-3.728-3.021-6.75-6.75-6.75   s-6.75,3.022-6.75,6.75c0,2.239-1.295,3.668-2.188,3.668h-30.245c-0.893,0-2.189-1.429-2.189-3.668c0-3.728-3.021-6.75-6.75-6.75   c-3.728,0-6.75,3.022-6.75,6.75c0,9.466,7.038,17.168,15.689,17.168h8.373v5.685h-14.947c-13.859,0-25.135,11.276-25.135,25.135   c0,13.859,11.275,25.136,25.135,25.136h33.717c48.385,0,87.75-39.365,87.75-87.75v-68.176v-61.202V270.99v-61.202V157.6   C460.932,109.215,421.566,69.85,373.182,69.85z M169.397,226.132c0.017-0.029,0.034-0.06,0.052-0.089   c0.387-0.668,0.787-1.327,1.199-1.979c0.011-0.017,0.021-0.034,0.033-0.051c1.642-2.592,3.47-5.052,5.467-7.365   c0.102-0.117,0.202-0.234,0.305-0.352c0.444-0.508,0.896-1.009,1.356-1.502c0.103-0.109,0.207-0.217,0.31-0.325   c1.432-1.51,2.939-2.946,4.514-4.307c0.176-0.151,0.348-0.306,0.524-0.454c0.438-0.37,0.884-0.73,1.331-1.088   c0.249-0.198,0.499-0.396,0.75-0.59c0.434-0.336,0.87-0.668,1.313-0.991c0.277-0.204,0.561-0.401,0.842-0.6   c0.68-0.481,1.369-0.947,2.068-1.401c0.415-0.269,0.828-0.542,1.25-0.802c0.391-0.24,0.791-0.468,1.188-0.7   c0.387-0.227,0.773-0.453,1.166-0.672c0.393-0.218,0.79-0.43,1.188-0.64c0.42-0.222,0.844-0.438,1.27-0.651   c0.38-0.189,0.76-0.379,1.145-0.562c0.512-0.242,1.031-0.474,1.552-0.702c0.307-0.136,0.61-0.277,0.919-0.408   c0.802-0.337,1.613-0.656,2.431-0.96c0.314-0.116,0.634-0.224,0.95-0.335c0.562-0.198,1.125-0.392,1.693-0.574   c0.347-0.111,0.695-0.218,1.045-0.323c0.57-0.172,1.145-0.335,1.723-0.49c0.327-0.088,0.652-0.179,0.982-0.262   c0.752-0.189,1.51-0.364,2.271-0.525c0.151-0.032,0.301-0.07,0.453-0.102c0.908-0.186,1.827-0.348,2.75-0.493   c0.288-0.045,0.579-0.081,0.868-0.123c0.661-0.094,1.324-0.18,1.991-0.253c0.332-0.037,0.664-0.07,0.998-0.102   c0.667-0.063,1.338-0.112,2.011-0.153c0.3-0.018,0.599-0.04,0.899-0.055c0.965-0.044,1.934-0.073,2.91-0.073h80.555   c0.988,0,1.971,0.029,2.948,0.075c0.304,0.014,0.605,0.035,0.907,0.054c0.688,0.042,1.373,0.093,2.055,0.157   c0.329,0.03,0.658,0.063,0.986,0.099c0.702,0.076,1.4,0.167,2.095,0.267c0.266,0.038,0.533,0.071,0.798,0.112   c0.939,0.147,1.873,0.313,2.798,0.501c0.196,0.04,0.39,0.088,0.586,0.13c0.734,0.157,1.466,0.325,2.19,0.507   c0.32,0.081,0.64,0.168,0.959,0.253c0.609,0.164,1.215,0.337,1.818,0.518c0.324,0.099,0.649,0.195,0.972,0.298   c0.662,0.211,1.318,0.436,1.971,0.668c0.232,0.083,0.468,0.159,0.699,0.244c0.849,0.314,1.688,0.646,2.519,0.996   c0.295,0.123,0.586,0.257,0.879,0.385c0.556,0.243,1.109,0.492,1.657,0.75c0.343,0.163,0.685,0.329,1.024,0.497   c0.502,0.249,0.999,0.505,1.493,0.767c0.333,0.176,0.668,0.35,0.997,0.531c0.576,0.318,1.145,0.649,1.71,0.984   c0.394,0.234,0.785,0.472,1.173,0.714c0.56,0.349,1.115,0.701,1.663,1.066c0.349,0.233,0.691,0.475,1.035,0.714   c0.401,0.28,0.801,0.563,1.194,0.851c0.36,0.263,0.718,0.529,1.072,0.8c0.371,0.284,0.737,0.575,1.104,0.868   c0.349,0.279,0.701,0.556,1.045,0.843c0.422,0.353,0.833,0.717,1.246,1.08c0.558,0.491,1.106,0.992,1.646,1.503   c0.303,0.286,0.606,0.569,0.903,0.861c0.361,0.355,0.716,0.718,1.068,1.081c0.269,0.276,0.534,0.555,0.796,0.836   c0.356,0.38,0.711,0.764,1.058,1.152c0.234,0.263,0.462,0.531,0.69,0.798c1.239,1.438,2.414,2.932,3.521,4.478   c0.181,0.254,0.364,0.506,0.542,0.763c0.325,0.468,0.642,0.941,0.954,1.419c0.17,0.26,0.336,0.521,0.502,0.783   c0.313,0.494,0.625,0.99,0.925,1.493c0.113,0.19,0.221,0.386,0.332,0.577c0.649,1.119,1.269,2.258,1.85,3.418   c0.06,0.118,0.123,0.234,0.182,0.353c0.271,0.549,0.526,1.104,0.782,1.662c0.118,0.259,0.236,0.518,0.352,0.778   c0.242,0.547,0.477,1.099,0.703,1.653c0.105,0.261,0.206,0.522,0.309,0.784c0.228,0.579,0.453,1.159,0.664,1.746   c0,0.001,0,0.002,0,0.002h-44.002c-13.234,0-23.248,2.611-30.614,7.982l-0.368,0.27c-16.289,11.885-24.74,17.105-38.656,5.957   c-11.273-9.03-26.096-14.209-40.666-14.209h-44.28C165.76,233.163,167.42,229.546,169.397,226.132z M161.204,359.819   c0.179,2.402,0.55,4.75,1.096,7.032C161.751,364.57,161.383,362.222,161.204,359.819z M363.603,373.163   c-1.61,4.032-3.8,7.77-6.473,11.108c-0.001,0.001-0.003,0.002-0.003,0.004c-1.325,1.655-2.768,3.212-4.315,4.659   c-0.02,0.018-0.038,0.036-0.058,0.055c-0.761,0.709-1.548,1.391-2.358,2.045c-0.042,0.034-0.085,0.066-0.127,0.101   c-0.776,0.622-1.575,1.218-2.394,1.787c-0.046,0.032-0.09,0.065-0.137,0.098c-0.828,0.571-1.68,1.112-2.548,1.627   c-0.106,0.063-0.217,0.124-0.324,0.187c-0.813,0.473-1.642,0.921-2.485,1.341c-0.07,0.035-0.14,0.073-0.211,0.108   c-0.881,0.432-1.782,0.831-2.695,1.205c-0.169,0.068-0.339,0.134-0.508,0.2c-0.852,0.336-1.714,0.648-2.59,0.932   c-0.08,0.026-0.159,0.056-0.24,0.081c-0.93,0.294-1.875,0.551-2.83,0.782c-0.213,0.052-0.427,0.1-0.641,0.148   c-0.91,0.206-1.828,0.391-2.759,0.54c-0.063,0.01-0.125,0.023-0.188,0.033c-0.976,0.151-1.965,0.26-2.96,0.346   c-0.239,0.021-0.479,0.038-0.72,0.055c-1.007,0.069-2.02,0.117-3.044,0.117h-7.623c-1.451,0-2.881-0.035-4.28-0.069   c-8.417-0.21-17.958-0.441-25.281,7.556l-0.793,0.869c-8.045,8.783-14.451,12.367-22.112,12.367   c-7.931,0-14.116-3.389-19.464-10.662c-6.938-9.438-16.768-10.076-26.524-10.076c-0.766,0-1.533,0.004-2.296,0.008l-9.348,0.008   c-1.018,0-2.023-0.047-3.025-0.114c-0.249-0.018-0.497-0.036-0.745-0.058c-0.993-0.084-1.981-0.189-2.955-0.338   c-0.003-0.001-0.005-0.002-0.008-0.002c-0.974-0.149-1.934-0.342-2.886-0.555c-0.237-0.053-0.474-0.107-0.709-0.164   c-0.947-0.228-1.887-0.474-2.808-0.762c-0.004-0.001-0.007-0.002-0.011-0.003c-0.92-0.287-1.823-0.614-2.717-0.96   c-0.223-0.085-0.443-0.173-0.664-0.262c-0.89-0.36-1.77-0.737-2.629-1.152c-0.003-0.002-0.006-0.004-0.009-0.005   c-0.858-0.415-1.694-0.865-2.521-1.333c-0.203-0.114-0.405-0.23-0.606-0.349c-0.821-0.481-1.631-0.979-2.417-1.511   c-0.002-0.002-0.005-0.004-0.008-0.006c-0.783-0.53-1.543-1.094-2.29-1.673c-0.182-0.141-0.362-0.282-0.542-0.426   c-0.741-0.593-1.469-1.199-2.17-1.837c-0.003-0.003-0.005-0.005-0.008-0.007c-0.697-0.636-1.367-1.3-2.023-1.978   c-0.158-0.164-0.316-0.33-0.474-0.497c-0.648-0.691-1.283-1.396-1.888-2.129c-0.002-0.002-0.003-0.004-0.005-0.006   c-0.601-0.729-1.171-1.485-1.726-2.252c-0.133-0.185-0.265-0.369-0.395-0.556c-0.547-0.78-1.076-1.572-1.572-2.389   c-0.002-0.003-0.004-0.006-0.006-0.01c-0.492-0.811-0.949-1.645-1.39-2.488c-0.105-0.201-0.21-0.403-0.312-0.607   c-0.432-0.857-0.845-1.726-1.221-2.613c0-0.001,0-0.002-0.001-0.003c1.655,0.161,3.327,0.327,5.042,0.5   c8.593,0.866,17.617,1.775,26.554,1.775c14.811,0,29.383-2.498,41.356-11.836c3.287-2.563,6.159-5.854,8.937-9.036   c6.452-7.396,10.849-11.886,17.464-11.886c5.992,0,8.437,2.644,13.395,8.62c7.653,9.228,18.136,21.865,50.304,22.344   C327.678,374.161,327.699,374.161,363.603,373.163c0.838-2.098,1.516-4.275,2.023-6.517   C365.119,368.889,364.44,371.065,363.603,373.163z M391.143,277.119v55.645v1.032c0,10.104-4.471,18.836-10.932,23.011   c-2.58,1.667-5.469,2.63-8.53,2.63l-0.188,0.003c0,0-1.886,0.052-4.864,0.135c-10.978,0.305-36.918,1.025-39.083,1.086   c-25.732-0.415-32.921-9.081-39.871-17.461c-5.25-6.329-11.199-13.502-23.786-13.502c-13.23,0.001-21.219,9.154-27.637,16.51   c-2.468,2.827-4.799,5.499-7.064,7.267c-14.932,11.644-36.958,9.425-58.255,7.273c-3.208-0.323-6.486-0.649-9.729-0.93   c-1.562-0.134-3.116-0.261-4.646-0.365c-3.28-0.224-6.314-1.324-8.989-3.08c-6.587-4.321-10.932-12.724-10.932-22.576v-1.032   v-55.645v-1.032c0-10.164,4.523-18.94,11.049-23.086c2.55-1.62,5.397-2.555,8.413-2.555h5.335h47.302   c11.558,0,23.303,4.099,32.226,11.246c22.59,18.093,39.837,5.512,55.052-5.588l0.368-0.268c4.904-3.576,12.528-5.391,22.659-5.391   h47.188h5.454c2.985,0,5.805,0.916,8.336,2.506c6.566,4.124,11.126,12.93,11.126,23.135V277.119z M354.412,488.199h-14.947   c-6.416,0-11.635-5.219-11.635-11.636c0-6.415,5.219-11.635,11.635-11.635h14.947V488.199z M447.432,413.949   c0,40.941-33.309,74.25-74.25,74.25h-5.27v-23.271h5.27c28.11,0,50.98-22.869,50.98-50.979v-68.176h23.27V413.949z    M447.432,332.273h-23.27v-3.804v-43.898h2.699h20.57V332.273z M447.432,270.99h-23.27v-47.702h23.27V270.99z M447.432,209.788   h-23.27V157.6c0-28.11-22.87-50.979-50.98-50.979c-6.416,0-11.635-5.22-11.635-11.635c0-6.416,5.219-11.636,11.635-11.636   c40.941,0,74.25,33.309,74.25,74.25V209.788z"/></g></svg>