<?xml version="1.0" ?><svg data-name="Layer 1" id="Layer_1" viewBox="0 0 64 64" xmlns="http://www.w3.org/2000/svg"><defs><style>
      .cls-1 {
        fill: #f76c5e;
      }

      .cls-2 {
        fill: #fd8266;
      }

      .cls-3 {
        fill: #fd5933;
      }

      .cls-4 {
        fill: #feac99;
      }

      .cls-5 {
        fill: #606c38;
      }
    </style></defs><path class="cls-4" d="M28.25,48.6c-6.51-1.37-11.72-6.27-13.54-12.61-1.92,.73-3.73,1.88-5.28,3.43-5.81,5.79-5.91,15.13-.27,21.03l.55,.55c-.1-.08-.19-.17-.28-.27-.1-.09-.19-.18-.27-.28-2.69-2.95-2.59-7.52,.27-10.38,2.95-2.94,7.73-2.94,10.68,0,2.31,2.31,5.73,2.81,8.53,1.5-.12-1.19-.25-2.17-.39-2.97Z"/><path class="cls-4" d="M35.75,48.6c6.51-1.37,11.72-6.27,13.54-12.61,1.92,.73,3.73,1.88,5.28,3.43,5.81,5.79,5.91,15.13,.27,21.03-.08,.1-.17,.19-.27,.28-.09,.1-.18,.19-.28,.27l.55-.55c2.69-2.95,2.59-7.52-.27-10.38-2.95-2.94-7.73-2.94-10.68,0-2.31,2.31-5.73,2.81-8.53,1.5,.12-1.19,.25-2.17,.39-2.97Z"/><path class="cls-4" d="M50,31c0,9.94-8.06,18-18,18S14,40.94,14,31,32,3,32,3c0,0,18,18.06,18,28Z"/><path class="cls-1" d="M31.54,48.99c-9.73-.24-17.54-8.2-17.54-17.99,0-2.57,1.21-5.69,3-8.9h0c.02,3.36,.73,6.77,3.16,8.53,2.21,1.6,3.43,3.51,4.09,5.25-.76,1.52-1.25,2.96-1.25,4.12,0,4.81,3.78,8.75,8.54,8.99Z"/><path class="cls-1" d="M32.46,48.99c9.73-.24,17.54-8.2,17.54-17.99,0-2.57-1.21-5.69-3-8.9h0c-.02,3.36-.73,6.77-3.16,8.53-2.21,1.6-3.43,3.51-4.09,5.25,.76,1.52,1.25,2.96,1.25,4.12,0,4.81-3.78,8.75-8.54,8.99Z"/><path class="cls-3" d="M30.53,26.72c.88-1.06,1.47-1.72,1.47-1.72,0,0,.59,.66,1.47,1.72,.57-1.95,1.79-4.23,4.37-6.09,2.15-1.56,2.96-4.42,3.13-7.4-4.49-5.73-8.97-10.23-8.97-10.23,0,0-4.48,4.5-8.97,10.23,.17,2.98,.98,5.84,3.13,7.4,2.58,1.86,3.8,4.14,4.37,6.09Z"/><path class="cls-5" d="M35.75,48.6c-1.21,.26-2.46,.4-3.75,.4s-2.54-.14-3.75-.4c.41,2.33,.75,6.15,.75,12.4h6c0-6.25,.34-10.07,.75-12.4Z"/><path class="cls-2" d="M41,40c0,4.97-4.03,9-9,9s-9-4.03-9-9,9-15,9-15c0,0,9,10.03,9,15Z"/><path d="M8.72,61.44c.12,.13,.23,.24,.36,.34,.18,.15,.4,.22,.62,.22,.28,0,.55-.11,.75-.33,.35-.4,.34-1-.04-1.37l-.53-.53c-2.33-2.57-2.22-6.51,.25-8.99,2.56-2.55,6.71-2.55,9.27,0,2.2,2.2,5.41,3,8.34,2.18,.17,2.25,.25,4.93,.25,8.04,0,.55,.45,1,1,1h6c.55,0,1-.45,1-1,0-3.11,.09-5.79,.25-8.04,2.93,.82,6.15,.02,8.34-2.18,2.56-2.55,6.71-2.55,9.27,0,2.48,2.48,2.58,6.43,.27,8.97l-.55,.55c-.38,.38-.39,.98-.04,1.37,.2,.22,.47,.33,.75,.33,.22,0,.44-.07,.62-.22,.13-.1,.25-.22,.36-.34,.12-.12,.23-.23,.28-.3,5.98-6.25,5.85-16.31-.29-22.43-1.41-1.41-3.03-2.5-4.82-3.3,.34-1.42,.54-2.89,.54-4.42,0-10.24-17.54-27.96-18.29-28.71-.38-.38-1.04-.38-1.42,0-.75,.75-18.29,18.47-18.29,28.71,0,1.52,.2,3,.54,4.42-1.78,.79-3.41,1.89-4.82,3.3-6.12,6.1-6.26,16.12-.32,22.4,.1,.12,.2,.22,.31,.33Zm25.28-1.44h-4.01c-.03-4.19-.21-7.6-.56-10.19,.51,.07,1.02,.11,1.54,.14,.34,.03,.68,.05,1.02,.05s.69-.02,1.02-.05c.52-.03,1.03-.07,1.54-.14-.34,2.59-.53,6-.56,10.19Zm-1.19-12.04c-.27,.01-.54,.04-.82,.04s-.54-.03-.82-.04c-4.03-.41-7.18-3.82-7.18-7.96,0-3.42,5.23-10.24,8-13.48,2.77,3.24,8,10.06,8,13.48,0,4.14-3.15,7.55-7.18,7.96Zm21.05-7.83c3.58,3.56,4.82,8.66,3.69,13.3-.36-1.49-1.12-2.9-2.28-4.07-3.33-3.32-8.76-3.32-12.09,0-1.77,1.77-4.41,2.35-6.75,1.55,.06-.54,.13-1.04,.2-1.51,6.17-1.56,11.14-6.13,13.25-12.06,1.47,.69,2.8,1.61,3.98,2.78Zm-4.86-9.13c0,6.49-3.66,12.14-9.02,15,1.26-1.67,2.02-3.75,2.02-6,0-1.2-.45-2.63-1.15-4.12,.74-1.75,1.93-3.25,3.57-4.44,1.66-1.21,2.74-3.15,3.24-5.79,.83,1.94,1.33,3.76,1.33,5.35Zm-3.01-8.68c-.06,3.7-.98,6.22-2.74,7.5-1.49,1.08-2.68,2.38-3.55,3.87-1.57-2.69-3.62-5.37-5.1-7.18,.7-2.03,1.98-3.73,3.83-5.06,1.64-1.19,2.71-3.09,3.23-5.66,1.58,2.13,3.1,4.36,4.34,6.54ZM32,4.44c1.4,1.46,4.65,4.94,7.94,9.11-.23,3.03-1.13,5.15-2.68,6.27-1.86,1.34-3.23,3-4.12,4.96-.17-.19-.31-.36-.39-.44-.38-.42-1.11-.42-1.49,0-.08,.09-.22,.25-.39,.44-.89-1.95-2.26-3.62-4.12-4.96-1.56-1.13-2.45-3.25-2.69-6.28,3.29-4.17,6.54-7.65,7.94-9.11Zm-9.65,11.34c.51,2.57,1.59,4.47,3.23,5.66,1.84,1.33,3.12,3.03,3.83,5.06-1.49,1.81-3.54,4.49-5.1,7.18-.87-1.49-2.06-2.79-3.55-3.87-1.76-1.28-2.68-3.8-2.74-7.5,1.24-2.18,2.75-4.41,4.34-6.54Zm-6.01,9.88c.5,2.63,1.58,4.58,3.24,5.79,1.64,1.19,2.83,2.69,3.57,4.44-.69,1.49-1.15,2.92-1.15,4.12,0,2.25,.76,4.33,2.02,6-5.36-2.86-9.02-8.51-9.02-15,0-1.59,.5-3.41,1.33-5.35Zm-6.19,14.47c1.17-1.17,2.51-2.09,3.98-2.78,2.11,5.93,7.08,10.5,13.25,12.06,.07,.47,.14,.97,.2,1.51-2.34,.8-4.97,.23-6.75-1.55-3.33-3.32-8.76-3.32-12.09,0-1.17,1.17-1.93,2.59-2.29,4.08-1.13-4.63,.12-9.75,3.7-13.32Z"/></svg>